<svg width="54" height="54" viewBox="0 0 54 54" fill="none" xmlns="http://www.w3.org/2000/svg">
<g id="ei:sc-instagram" clip-path="url(#clip0_3171_2900)">
<ellipse id="Ellipse 15" cx="26.6225" cy="27.4946" rx="25.8725" ry="25.8725" fill="#111111"/>
<g id="Group">
<path id="Vector" fill-rule="evenodd" clip-rule="evenodd" d="M27.287 13.0312C23.5401 13.0312 23.0699 13.0472 21.5977 13.114C20.1286 13.1809 19.1256 13.4144 18.2478 13.7552C17.3272 14.1019 16.4933 14.6452 15.8043 15.3473C15.1021 16.0366 14.5588 16.8709 14.2122 17.7918C13.8715 18.6685 13.639 19.6716 13.5711 21.1406C13.5042 22.6128 13.4883 23.0831 13.4883 26.8299C13.4883 30.5768 13.5042 31.047 13.5711 32.5192C13.6379 33.9883 13.8715 34.9913 14.2122 35.8681C14.5656 36.7756 15.0369 37.5452 15.8043 38.3126C16.4933 39.0147 17.3272 39.558 18.2478 39.9047C19.1256 40.2444 20.1286 40.4779 21.5977 40.5458C23.0699 40.6127 23.5401 40.6286 27.287 40.6286C31.0338 40.6286 31.5041 40.6127 32.9763 40.5458C34.4453 40.479 35.4484 40.2454 36.3251 39.9047C37.2461 39.5582 38.0803 39.0148 38.7696 38.3126C39.4718 37.6233 40.0152 36.789 40.3618 35.8681C40.7014 34.9913 40.9349 33.9883 41.0029 32.5192C41.0697 31.047 41.0857 30.5768 41.0857 26.8299C41.0857 23.0831 41.0697 22.6128 41.0029 21.1406C40.936 19.6716 40.7025 18.6685 40.3607 17.7918C40.0144 16.8709 39.4714 16.0367 38.7696 15.3473C38.0803 14.6451 37.2461 14.1017 36.3251 13.7552C35.4484 13.4155 34.4453 13.182 32.9763 13.114C31.5041 13.0472 31.0338 13.0312 27.287 13.0312ZM27.287 15.5171C30.9712 15.5171 31.4075 15.532 32.8627 15.5978C34.2075 15.6594 34.9389 15.8844 35.425 16.0733C36.0693 16.3238 36.5289 16.6221 37.0119 17.105C37.4948 17.588 37.7931 18.0476 38.0436 18.6919C38.2325 19.178 38.4575 19.9083 38.5191 21.2542C38.5849 22.7084 38.5998 23.1457 38.5998 26.8299C38.5998 30.5142 38.5849 30.9504 38.5191 32.4057C38.4575 33.7516 38.2325 34.4818 38.0436 34.968C37.8225 35.5674 37.47 36.1096 37.0119 36.5548C36.5667 37.013 36.0244 37.3655 35.425 37.5865C34.9389 37.7755 34.2075 38.0005 32.8627 38.0621C31.4085 38.1279 30.9712 38.1427 27.287 38.1427C23.6027 38.1427 23.1654 38.1279 21.7112 38.0621C20.3653 38.0005 19.6351 37.7755 19.1489 37.5865C18.5495 37.3655 18.0073 37.013 17.5621 36.5548C17.104 36.1096 16.7515 35.5673 16.5304 34.968C16.3414 34.4818 16.1164 33.7516 16.0548 32.4057C15.989 30.9515 15.9742 30.5142 15.9742 26.8299C15.9742 23.1457 15.989 22.7094 16.0548 21.2542C16.1164 19.9083 16.3414 19.178 16.5304 18.6919C16.7809 18.0476 17.0791 17.588 17.5621 17.105C18.0073 16.6469 18.5495 16.2944 19.1489 16.0733C19.6351 15.8844 20.3653 15.6594 21.7112 15.5978C23.1654 15.532 23.6027 15.5171 27.287 15.5171Z" fill="#F5F5F5"/>
<path id="Vector_2" fill-rule="evenodd" clip-rule="evenodd" d="M27.2894 19.3998C25.3189 19.3998 23.429 20.1826 22.0356 21.576C20.6422 22.9694 19.8594 24.8593 19.8594 26.8298C19.8594 28.8004 20.6422 30.6903 22.0356 32.0837C23.429 33.4771 25.3189 34.2599 27.2894 34.2599C29.26 34.2599 31.1499 33.4771 32.5433 32.0837C33.9367 30.6903 34.7195 28.8004 34.7195 26.8298C34.7195 24.8593 33.9367 22.9694 32.5433 21.576C31.1499 20.1826 29.26 19.3998 27.2894 19.3998ZM27.2894 31.6063C26.0226 31.6063 24.8077 31.1031 23.912 30.2073C23.0162 29.3115 22.513 28.0966 22.513 26.8298C22.513 25.563 23.0162 24.3481 23.912 23.4524C24.8077 22.5566 26.0226 22.0534 27.2894 22.0534C28.5562 22.0534 29.7712 22.5566 30.6669 23.4524C31.5627 24.3481 32.0659 25.563 32.0659 26.8298C32.0659 28.0966 31.5627 29.3115 30.6669 30.2073C29.7712 31.1031 28.5562 31.6063 27.2894 31.6063ZM36.5239 19.5059C36.5239 19.7289 36.48 19.9498 36.3947 20.1558C36.3093 20.3619 36.1842 20.5491 36.0265 20.7068C35.8688 20.8645 35.6816 20.9896 35.4756 21.0749C35.2695 21.1603 35.0487 21.2042 34.8256 21.2042C34.6026 21.2042 34.3818 21.1603 34.1757 21.0749C33.9697 20.9896 33.7825 20.8645 33.6248 20.7068C33.4671 20.5491 33.342 20.3619 33.2566 20.1558C33.1713 19.9498 33.1273 19.7289 33.1273 19.5059C33.1273 19.0555 33.3063 18.6235 33.6248 18.305C33.9433 17.9865 34.3752 17.8076 34.8256 17.8076C35.2761 17.8076 35.708 17.9865 36.0265 18.305C36.345 18.6235 36.5239 19.0555 36.5239 19.5059Z" fill="#F5F5F5"/>
</g>
</g>
<defs>
<clipPath id="clip0_3171_2900">
<rect width="53.0719" height="53.0719" fill="white" transform="translate(0.75 0.294922)"/>
</clipPath>
</defs>
</svg>
