<svg width="54" height="54" viewBox="0 0 54 54" fill="none" xmlns="http://www.w3.org/2000/svg">
<g id="entypo-social:linkedin-with-circle">
<path id="Vector" d="M27.3886 1.35645C13.3192 1.35645 1.91406 12.7616 1.91406 26.8309C1.91406 40.9003 13.3192 52.3054 27.3886 52.3054C41.4579 52.3054 52.8631 40.9003 52.8631 26.8309C52.8631 12.7616 41.4579 1.35645 27.3886 1.35645ZM21.1526 37.3896H15.994V20.7887H21.1526V37.3896ZM18.5415 18.7507C16.9122 18.7507 15.8587 17.5964 15.8587 16.1688C15.8587 14.712 16.944 13.5922 18.6078 13.5922C20.2716 13.5922 21.2906 14.712 21.3225 16.1688C21.3225 17.5964 20.2716 18.7507 18.5415 18.7507ZM39.9931 37.3896H34.8346V28.1896C34.8346 26.0481 34.0862 24.594 32.2208 24.594C30.7958 24.594 29.9493 25.5784 29.5751 26.5258C29.4371 26.8628 29.4026 27.3404 29.4026 27.8154V37.3869H24.2414V26.0826C24.2414 24.0102 24.1751 22.2774 24.1061 20.7861H28.588L28.8242 23.092H28.9277C29.607 22.0094 31.2708 20.4119 34.0544 20.4119C37.4483 20.4119 39.9931 22.686 39.9931 27.5739V37.3896Z" fill="#111111"/>
</g>
</svg>
