<svg width="54" height="54" viewBox="0 0 54 54" fill="none" xmlns="http://www.w3.org/2000/svg">
<g id="formkit:twitter" clip-path="url(#clip0_3171_2907)">
<path id="Vector" d="M27.4109 0.294922C42.0815 0.294922 53.9469 12.1603 53.9469 26.8309C53.9469 41.5014 42.0815 53.3668 27.4109 53.3668C12.7404 53.3668 0.875 41.5014 0.875 26.8309C0.875 12.1603 12.7404 0.294922 27.4109 0.294922ZM22.5587 40.8191C34.3103 40.8191 40.7547 31.0766 40.7547 22.623V21.789C42.0057 20.8792 43.1051 19.742 43.939 18.4531C42.8018 18.9459 41.5508 19.2871 40.2619 19.4766C41.5887 18.6805 42.6123 17.4296 43.0672 15.9511C41.8162 16.6714 40.4515 17.2021 39.0109 17.5054C37.8358 16.2544 36.1678 15.4962 34.3482 15.4962C30.8227 15.4962 27.9417 18.3773 27.9417 21.9028C27.9417 22.3956 27.9796 22.8884 28.1312 23.3433C22.824 23.0779 18.0855 20.5381 14.9391 16.6714C14.4083 17.6191 14.0672 18.7184 14.0672 19.8936C14.0672 22.0923 15.2044 24.0635 16.9103 25.2008C15.8489 25.2008 14.8632 24.8975 14.0292 24.4047V24.4805C14.0292 27.589 16.2279 30.1668 19.1469 30.7733C18.6162 30.925 18.0475 31.0008 17.4789 31.0008C17.0619 31.0008 16.6828 30.9629 16.2658 30.8871C17.0619 33.4269 19.4502 35.2845 22.2175 35.3224C20.0188 37.0282 17.2515 38.0518 14.2567 38.0518C13.726 38.0518 13.2332 38.0518 12.7404 37.976C15.5456 39.7956 18.9194 40.857 22.5208 40.857" fill="#111111"/>
</g>
<defs>
<clipPath id="clip0_3171_2907">
<rect width="53.0719" height="53.0719" fill="white" transform="translate(0.875 0.294922)"/>
</clipPath>
</defs>
</svg>
