<svg width="54" height="54" viewBox="0 0 54 54" fill="none" xmlns="http://www.w3.org/2000/svg">
<g id="jam:yelp-circle" clip-path="url(#clip0_3171_2896)">
<ellipse id="Ellipse 16" cx="26.646" cy="26.1675" rx="25.8725" ry="25.8725" fill="#111111"/>
<g id="Group">
<path id="Vector" d="M25.0088 31.3245L21.0865 35.5687C20.9578 35.7073 20.8678 35.8711 20.824 36.0467C20.7801 36.2222 20.7837 36.4044 20.8344 36.5785C20.885 36.7526 20.9814 36.9135 21.1155 37.048C21.2496 37.1826 21.4177 37.287 21.6059 37.3527L25.4402 38.6926C25.6317 38.7596 25.8385 38.7845 26.0431 38.7654C26.2477 38.7462 26.4442 38.6834 26.6157 38.5824C26.7873 38.4814 26.9289 38.3451 27.0286 38.185C27.1283 38.025 27.1831 37.846 27.1885 37.6631L27.3559 32.1042C27.3636 31.8585 27.2847 31.6168 27.1302 31.413C26.9757 31.2091 26.7534 31.0534 26.4944 30.9674C26.2354 30.8815 25.9527 30.8697 25.6858 30.9337C25.4189 30.9978 25.184 31.1344 25.0088 31.3245ZM24.356 27.1054L18.5379 25.2483C18.348 25.1877 18.1447 25.1679 17.9445 25.1905C17.7443 25.2132 17.553 25.2775 17.3862 25.3784C17.2193 25.4793 17.0816 25.6138 16.9844 25.771C16.8871 25.9281 16.833 26.1035 16.8265 26.2828L16.696 29.9442C16.6676 30.734 17.5304 31.3068 18.3733 31.062L24.3191 29.3335C24.5813 29.2571 24.8101 29.1098 24.9737 28.9122C25.1372 28.7145 25.2272 28.4765 25.2313 28.2312C25.2354 27.9859 25.1532 27.7456 24.9963 27.5438C24.8394 27.342 24.6156 27.1887 24.356 27.1054ZM31.0199 27.7009L36.9771 26.2399C37.1719 26.1923 37.3512 26.1044 37.5004 25.9833C37.6496 25.8623 37.7645 25.7115 37.8356 25.5434C37.9068 25.3753 37.9322 25.1947 37.9097 25.0162C37.8873 24.8377 37.8176 24.6665 37.7065 24.5165L35.4445 21.4557C35.3315 21.3022 35.1783 21.1753 34.9982 21.0857C34.8181 20.9962 34.6163 20.9467 34.41 20.9415C34.2037 20.9363 33.999 20.9755 33.8135 21.0558C33.6279 21.1361 33.467 21.2551 33.3443 21.4027L29.6065 25.8614C29.4421 26.0582 29.3507 26.2957 29.3452 26.5409C29.3398 26.786 29.4204 27.0265 29.576 27.229C29.7315 27.4314 29.9542 27.5857 30.213 27.6703C30.4719 27.7549 30.7539 27.7656 31.0199 27.7009ZM26.706 14.9758C26.7172 14.7629 26.6716 14.5507 26.5729 14.3565C26.4742 14.1623 26.3252 13.9916 26.138 13.8585C25.9509 13.7253 25.7309 13.6334 25.4962 13.5904C25.2615 13.5473 25.0186 13.5542 24.7874 13.6106L20.0733 14.7537C19.8374 14.8107 19.6204 14.9175 19.4409 15.065C19.2613 15.2125 19.1245 15.3964 19.042 15.6011C18.9595 15.8057 18.9338 16.025 18.9671 16.2404C19.0004 16.4557 19.0917 16.6607 19.2333 16.838L24.6398 25.17C24.6832 25.2387 24.7336 25.3038 24.7903 25.3643C24.971 25.5496 25.2034 25.6895 25.464 25.7699C25.7247 25.8502 26.0045 25.8683 26.2755 25.8223C26.5465 25.7763 26.7992 25.6679 27.0082 25.5078C27.2172 25.3477 27.3753 25.1416 27.4666 24.9101C27.5305 24.7335 27.5536 24.5473 27.5347 24.3626L26.7031 14.9758H26.706ZM37.0168 31.5087L31.0369 29.8761C30.7726 29.8033 30.4894 29.8058 30.2268 29.8834C29.9642 29.961 29.7356 30.1096 29.5728 30.3086C29.4101 30.5075 29.3215 30.7468 29.3194 30.9927C29.3173 31.2387 29.4018 31.4791 29.5611 31.6802L33.1087 36.1768C33.6111 36.8077 34.6584 36.8253 35.1806 36.2071L37.6639 33.2851C37.7885 33.139 37.8716 32.9683 37.9061 32.7875C37.9405 32.6067 37.9253 32.4212 37.8618 32.2467C37.7983 32.0723 37.6882 31.9141 37.5411 31.7856C37.394 31.657 37.2141 31.5621 37.0168 31.5087Z" fill="#F5F5F5"/>
</g>
</g>
<defs>
<clipPath id="clip0_3171_2896">
<rect width="53.0719" height="53.0719" fill="white" transform="translate(0.773438 0.294922)"/>
</clipPath>
</defs>
</svg>
