<svg width="59" height="58" viewBox="0 0 59 58" fill="none" xmlns="http://www.w3.org/2000/svg">
<g id="entypo-social:youtube-with-circle">
<path id="Vector" d="M33.0138 27.2218L26.8055 24.3249C26.2637 24.0734 25.8187 24.3553 25.8187 24.9552V30.4116C25.8187 31.0114 26.2637 31.2934 26.8055 31.0419L33.011 28.145C33.5555 27.8907 33.5555 27.4761 33.0138 27.2218ZM28.5828 1.14746C13.9272 1.14746 2.04688 13.0278 2.04688 27.6834C2.04688 42.339 13.9272 54.2193 28.5828 54.2193C43.2384 54.2193 55.1188 42.339 55.1188 27.6834C55.1188 13.0278 43.2384 1.14746 28.5828 1.14746ZM28.5828 38.4636C14.9997 38.4636 14.762 37.2391 14.762 27.6834C14.762 18.1277 14.9997 16.9032 28.5828 16.9032C42.1659 16.9032 42.4036 18.1277 42.4036 27.6834C42.4036 37.2391 42.1659 38.4636 28.5828 38.4636Z" fill="#111111"/>
</g>
</svg>
