<svg class="svg-icon" width="71" height="54" viewBox="0 0 71 54" fill="none" xmlns="http://www.w3.org/2000/svg">
<rect width="71" height="54" rx="10" fill="#171515"/>
<path d="M24.3451 12.2115C24.485 12.0971 24.6551 12.0257 24.8347 12.0057C25.0143 11.9858 25.1959 12.0182 25.3575 12.099L53.4807 26.1609C53.6367 26.2386 53.768 26.3583 53.8597 26.5065C53.9514 26.6547 54 26.8256 54 26.9999C54 27.1742 53.9514 27.345 53.8597 27.4932C53.768 27.6414 53.6367 27.7611 53.4807 27.8389L25.3575 41.9007C25.196 41.9816 25.0146 42.0141 24.8351 41.9944C24.6556 41.9746 24.4856 41.9034 24.3456 41.7893C24.2056 41.6753 24.1015 41.5232 24.0459 41.3513C23.9902 41.1795 23.9854 40.9953 24.032 40.8208L27.718 27.0008L24.032 13.1808C23.9852 13.0063 23.9898 12.8219 24.0454 12.6499C24.1009 12.478 24.205 12.3257 24.3451 12.2115ZM29.4073 27.9383L26.3812 39.2927L50.9646 27.0008L26.3793 14.7089L29.4073 26.0634H41.8115C42.0601 26.0634 42.2985 26.1621 42.4743 26.3379C42.6501 26.5137 42.7489 26.7522 42.7489 27.0008C42.7489 27.2494 42.6501 27.4879 42.4743 27.6637C42.2985 27.8395 42.0601 27.9383 41.8115 27.9383H29.4073Z" fill="#FCE385"/>
</svg>
