<svg width="20" height="10" viewBox="0 0 20 10" fill="none" xmlns="http://www.w3.org/2000/svg">
<path d="M19.8124 1.09863L10.4939 9.80895C10.3628 9.93128 10.1852 10 10 10C9.81479 10 9.63716 9.93128 9.50612 9.80895L0.187574 1.09863C0.0641223 0.974787 -0.00308571 0.810993 0.000108885 0.64175C0.00330348 0.472508 0.0766514 0.311031 0.2047 0.19134C0.332749 0.0716492 0.505501 0.00308786 0.686562 0.000101777C0.867622 -0.00288431 1.04285 0.0599379 1.17534 0.175332L10 8.42292L18.8247 0.175332C18.9571 0.0599379 19.1324 -0.00288431 19.3134 0.000101777C19.4945 0.00308786 19.6673 0.0716492 19.7953 0.19134C19.9233 0.311031 19.9967 0.472508 19.9999 0.64175C20.0031 0.810993 19.9359 0.974787 19.8124 1.09863Z" fill="#111111"/>
</svg>
