<svg width="22" height="18" viewBox="0 0 22 18" fill="none" xmlns="http://www.w3.org/2000/svg">
<g id="Group">
<path id="Vector" d="M1.0571 0.894743V0.315796C0.909348 0.315796 0.767648 0.376792 0.663171 0.485366C0.558694 0.593939 0.5 0.741197 0.5 0.894743H1.0571ZM21.1127 0.894743H21.6698C21.6698 0.741197 21.6111 0.593939 21.5066 0.485366C21.4022 0.376792 21.2605 0.315796 21.1127 0.315796V0.894743ZM1.0571 1.47369H21.1127V0.315796H1.0571V1.47369ZM20.5556 0.894743V14.7895H21.6698V0.894743H20.5556ZM18.8843 16.5263H3.2855V17.6842H18.8843V16.5263ZM1.6142 14.7895V0.894743H0.5V14.7895H1.6142ZM3.2855 16.5263C2.84224 16.5263 2.41714 16.3433 2.10371 16.0176C1.79028 15.6919 1.6142 15.2501 1.6142 14.7895H0.5C0.5 15.5572 0.793472 16.2935 1.31585 16.8364C1.83824 17.3792 2.54674 17.6842 3.2855 17.6842V16.5263ZM20.5556 14.7895C20.5556 15.2501 20.3795 15.6919 20.0661 16.0176C19.7527 16.3433 19.3276 16.5263 18.8843 16.5263V17.6842C19.6231 17.6842 20.3316 17.3792 20.854 16.8364C21.3763 16.2935 21.6698 15.5572 21.6698 14.7895H20.5556Z" fill="#171515"/>
<path id="Vector_2" d="M1.05664 0.894775L11.0844 11.3158L21.1123 0.894775" stroke="#171515" stroke-width="1.66667" stroke-linecap="round" stroke-linejoin="round"/>
</g>
</svg>
