<svg width="26" height="24" viewBox="0 0 26 24" fill="none" xmlns="http://www.w3.org/2000/svg">
<path d="M2.626 24C1.87742 24 1.25287 23.769 0.752375 23.307C0.251875 22.845 0.00108333 22.268 0 21.576V2.424C0 1.733 0.250791 1.1565 0.752375 0.6945C1.25396 0.2325 1.8785 0.001 2.626 0H23.3756C24.1231 0 24.7477 0.2315 25.2492 0.6945C25.7508 1.1575 26.0011 1.734 26 2.424V21.5775C26 22.2675 25.7497 22.844 25.2492 23.307C24.7487 23.77 24.1237 24.001 23.374 24H2.626ZM2.626 22.5H8.12175V16.503H1.625V21.5775C1.625 21.8465 1.71871 22.0675 1.90612 22.2405C2.09354 22.4135 2.3335 22.5 2.626 22.5ZM9.74675 22.5H16.2532V16.503H9.74675V22.5ZM17.8782 22.5H23.3756C23.667 22.5 23.9065 22.4135 24.0939 22.2405C24.2813 22.0675 24.375 21.8465 24.375 21.5775V16.503H17.8782V22.5ZM1.625 15.003H8.12175V8.997H1.625V15.003ZM9.74675 15.003H16.2532V8.997H9.74675V15.003ZM17.8782 15.003H24.375V8.997H17.8782V15.003ZM1.625 7.497H8.12175V1.5H2.62437C2.33296 1.5 2.09354 1.5865 1.90612 1.7595C1.71871 1.9325 1.625 2.154 1.625 2.424V7.497ZM9.74675 7.497H16.2532V1.5H9.74675V7.497ZM17.8782 7.497H24.375V2.424C24.375 2.154 24.2813 1.9325 24.0939 1.7595C23.9065 1.5865 23.667 1.5 23.3756 1.5H17.8782V7.497Z" fill="#878787"/>
</svg>
