<svg width="42" height="42" viewBox="0 0 42 42" fill="none" xmlns="http://www.w3.org/2000/svg">
<g clip-path="url(#clip0_582_8067)">
<ellipse cx="20.4909" cy="21.5504" rx="19.7809" ry="19.7809" fill="#171515"/>
<path fill-rule="evenodd" clip-rule="evenodd" d="M20.9981 10.4932C18.1334 10.4932 17.7739 10.5053 16.6483 10.5565C15.5251 10.6076 14.7582 10.7861 14.0871 11.0466C13.3833 11.3117 12.7458 11.7271 12.219 12.2639C11.6821 12.7909 11.2667 13.4287 11.0017 14.1329C10.7412 14.8032 10.5635 15.5701 10.5115 16.6932C10.4604 17.8188 10.4482 18.1783 10.4482 21.043C10.4482 23.9077 10.4604 24.2672 10.5115 25.3927C10.5627 26.5159 10.7412 27.2828 11.0017 27.9531C11.2719 28.647 11.6323 29.2353 12.219 29.822C12.7458 30.3588 13.3833 30.7743 14.0871 31.0393C14.7582 31.299 15.5251 31.4776 16.6483 31.5295C17.7739 31.5806 18.1334 31.5928 20.9981 31.5928C23.8627 31.5928 24.2222 31.5806 25.3478 31.5295C26.471 31.4784 27.2379 31.2998 27.9082 31.0393C28.6123 30.7744 29.2501 30.359 29.7771 29.822C30.314 29.295 30.7294 28.6572 30.9944 27.9531C31.2541 27.2828 31.4326 26.5159 31.4846 25.3927C31.5357 24.2672 31.5479 23.9077 31.5479 21.043C31.5479 18.1783 31.5357 17.8188 31.4846 16.6932C31.4335 15.5701 31.2549 14.8032 30.9936 14.1329C30.7289 13.4288 30.3137 12.791 29.7771 12.2639C29.2501 11.727 28.6123 11.3116 27.9082 11.0466C27.2379 10.7869 26.471 10.6084 25.3478 10.5565C24.2222 10.5053 23.8627 10.4932 20.9981 10.4932ZM20.9981 12.3938C23.8149 12.3938 24.1484 12.4051 25.261 12.4554C26.2892 12.5025 26.8483 12.6745 27.22 12.819C27.7126 13.0105 28.064 13.2386 28.4332 13.6078C28.8025 13.977 29.0305 14.3284 29.222 14.821C29.3665 15.1927 29.5385 15.751 29.5856 16.78C29.6359 17.8918 29.6473 18.2262 29.6473 21.043C29.6473 23.8598 29.6359 24.1933 29.5856 25.3059C29.5385 26.3349 29.3665 26.8933 29.222 27.2649C29.0531 27.7232 28.7835 28.1378 28.4332 28.4782C28.0929 28.8285 27.6783 29.098 27.22 29.267C26.8483 29.4114 26.2892 29.5835 25.261 29.6305C24.1492 29.6808 23.8149 29.6922 20.9981 29.6922C18.1813 29.6922 17.8469 29.6808 16.7351 29.6305C15.7061 29.5835 15.1478 29.4114 14.7761 29.267C14.3178 29.098 13.9033 28.8285 13.5629 28.4782C13.2126 28.1377 12.9431 27.7232 12.7741 27.2649C12.6296 26.8933 12.4576 26.3349 12.4105 25.3059C12.3602 24.1941 12.3488 23.8598 12.3488 21.043C12.3488 18.2262 12.3602 17.8926 12.4105 16.78C12.4576 15.751 12.6296 15.1927 12.7741 14.821C12.9656 14.3284 13.1936 13.977 13.5629 13.6078C13.9033 13.2575 14.3178 12.988 14.7761 12.819C15.1478 12.6745 15.7061 12.5025 16.7351 12.4554C17.8469 12.4051 18.1813 12.3938 20.9981 12.3938Z" fill="white"/>
<path fill-rule="evenodd" clip-rule="evenodd" d="M20.9981 15.3628C19.4914 15.3628 18.0465 15.9613 16.9812 17.0266C15.9159 18.092 15.3174 19.5369 15.3174 21.0435C15.3174 22.5501 15.9159 23.995 16.9812 25.0603C18.0465 26.1256 19.4914 26.7241 20.9981 26.7241C22.5047 26.7241 23.9496 26.1256 25.0149 25.0603C26.0802 23.995 26.6787 22.5501 26.6787 21.0435C26.6787 19.5369 26.0802 18.092 25.0149 17.0266C23.9496 15.9613 22.5047 15.3628 20.9981 15.3628ZM20.9981 24.6953C20.0295 24.6953 19.1007 24.3106 18.4158 23.6257C17.7309 22.9409 17.3462 22.012 17.3462 21.0435C17.3462 20.0749 17.7309 19.1461 18.4158 18.4612C19.1007 17.7764 20.0295 17.3916 20.9981 17.3916C21.9666 17.3916 22.8955 17.7764 23.5803 18.4612C24.2652 19.1461 24.6499 20.0749 24.6499 21.0435C24.6499 22.012 24.2652 22.9409 23.5803 23.6257C22.8955 24.3106 21.9666 24.6953 20.9981 24.6953ZM28.0583 15.4439C28.0583 15.6145 28.0247 15.7833 27.9595 15.9408C27.8942 16.0984 27.7986 16.2415 27.678 16.3621C27.5574 16.4827 27.4143 16.5783 27.2568 16.6435C27.0992 16.7088 26.9304 16.7424 26.7599 16.7424C26.5894 16.7424 26.4205 16.7088 26.263 16.6435C26.1055 16.5783 25.9623 16.4827 25.8417 16.3621C25.7212 16.2415 25.6255 16.0984 25.5603 15.9408C25.495 15.7833 25.4614 15.6145 25.4614 15.4439C25.4614 15.0996 25.5982 14.7693 25.8417 14.5258C26.0852 14.2823 26.4155 14.1455 26.7599 14.1455C27.1042 14.1455 27.4345 14.2823 27.678 14.5258C27.9215 14.7693 28.0583 15.0996 28.0583 15.4439Z" fill="white"/>
</g>
<defs>
<clipPath id="clip0_582_8067">
<rect width="40.5762" height="40.5762" fill="white" transform="translate(0.709961 0.754883)"/>
</clipPath>
</defs>
</svg>
