<svg width="46" height="46" viewBox="0 0 46 46" fill="none" xmlns="http://www.w3.org/2000/svg">
<g clip-path="url(#clip0_672_29766)">
<ellipse cx="22.7629" cy="23.3723" rx="22.0959" ry="22.0959" fill="#FEFFFF"/>
<path fill-rule="evenodd" clip-rule="evenodd" d="M23.3294 11.0215C20.1295 11.0215 19.7279 11.0351 18.4706 11.0922C17.216 11.1493 16.3593 11.3487 15.6097 11.6397C14.8235 11.9358 14.1113 12.3999 13.5229 12.9995C12.9232 13.5882 12.4591 14.3006 12.1632 15.0871C11.8722 15.8359 11.6736 16.6925 11.6156 17.9471C11.5585 19.2045 11.5449 19.606 11.5449 22.806C11.5449 26.0059 11.5585 26.4075 11.6156 27.6648C11.6727 28.9194 11.8722 29.7761 12.1632 30.5248C12.465 31.2999 12.8675 31.9571 13.5229 32.6125C14.1113 33.2121 14.8235 33.6761 15.6097 33.9723C16.3593 34.2623 17.216 34.4618 18.4706 34.5198C19.7279 34.5769 20.1295 34.5905 23.3294 34.5905C26.5294 34.5905 26.931 34.5769 28.1883 34.5198C29.4429 34.4627 30.2995 34.2632 31.0483 33.9723C31.8348 33.6763 32.5473 33.2122 33.1359 32.6125C33.7357 32.0238 34.1997 31.3114 34.4957 30.5248C34.7858 29.7761 34.9852 28.9194 35.0432 27.6648C35.1003 26.4075 35.1139 26.0059 35.1139 22.806C35.1139 19.606 35.1003 19.2045 35.0432 17.9471C34.9861 16.6925 34.7867 15.8359 34.4948 15.0871C34.1991 14.3007 33.7353 13.5882 33.1359 12.9995C32.5473 12.3997 31.8348 11.9357 31.0483 11.6397C30.2995 11.3496 29.4429 11.1502 28.1883 11.0922C26.931 11.0351 26.5294 11.0215 23.3294 11.0215ZM23.3294 13.1445C26.4759 13.1445 26.8485 13.1572 28.0913 13.2134C29.2398 13.266 29.8644 13.4582 30.2796 13.6195C30.8298 13.8334 31.2223 14.0882 31.6348 14.5006C32.0472 14.9131 32.302 15.3056 32.5159 15.8558C32.6773 16.271 32.8694 16.8947 32.922 18.0441C32.9782 19.286 32.9909 19.6595 32.9909 22.806C32.9909 25.9524 32.9782 26.325 32.922 27.5678C32.8694 28.7173 32.6773 29.3409 32.5159 29.7561C32.3271 30.268 32.026 30.7311 31.6348 31.1113C31.2546 31.5026 30.7915 31.8037 30.2796 31.9925C29.8644 32.1538 29.2398 32.346 28.0913 32.3986C26.8494 32.4548 26.4759 32.4675 23.3294 32.4675C20.183 32.4675 19.8095 32.4548 18.5676 32.3986C17.4181 32.346 16.7945 32.1538 16.3793 31.9925C15.8674 31.8037 15.4043 31.5026 15.0241 31.1113C14.6329 30.7311 14.3318 30.268 14.143 29.7561C13.9816 29.3409 13.7894 28.7173 13.7368 27.5678C13.6806 26.3259 13.6679 25.9524 13.6679 22.806C13.6679 19.6595 13.6806 19.287 13.7368 18.0441C13.7894 16.8947 13.9816 16.271 14.143 15.8558C14.3569 15.3056 14.6116 14.9131 15.0241 14.5006C15.4043 14.1094 15.8674 13.8083 16.3793 13.6195C16.7945 13.4582 17.4181 13.266 18.5676 13.2134C19.8095 13.1572 20.183 13.1445 23.3294 13.1445Z" fill="#0076AD"/>
<path fill-rule="evenodd" clip-rule="evenodd" d="M23.3299 16.4603C21.6469 16.4603 20.0329 17.1289 18.8429 18.3189C17.6529 19.5089 16.9844 21.1229 16.9844 22.8058C16.9844 24.4888 17.6529 26.1028 18.8429 27.2928C20.0329 28.4828 21.6469 29.1513 23.3299 29.1513C25.0128 29.1513 26.6268 28.4828 27.8168 27.2928C29.0068 26.1028 29.6754 24.4888 29.6754 22.8058C29.6754 21.1229 29.0068 19.5089 27.8168 18.3189C26.6268 17.1289 25.0128 16.4603 23.3299 16.4603ZM23.3299 26.8851C22.248 26.8851 21.2104 26.4553 20.4454 25.6903C19.6804 24.9253 19.2506 23.8877 19.2506 22.8058C19.2506 21.724 19.6804 20.6864 20.4454 19.9214C21.2104 19.1564 22.248 18.7266 23.3299 18.7266C24.4118 18.7266 25.4493 19.1564 26.2143 19.9214C26.9793 20.6864 27.4091 21.724 27.4091 22.8058C27.4091 23.8877 26.9793 24.9253 26.2143 25.6903C25.4493 26.4553 24.4118 26.8851 23.3299 26.8851ZM31.2164 16.551C31.2164 16.7415 31.1789 16.9301 31.106 17.106C31.0331 17.282 30.9263 17.4419 30.7916 17.5766C30.6569 17.7113 30.497 17.8181 30.3211 17.891C30.1451 17.9639 29.9565 18.0014 29.766 18.0014C29.5756 18.0014 29.387 17.9639 29.211 17.891C29.035 17.8181 28.8751 17.7113 28.7404 17.5766C28.6058 17.4419 28.4989 17.282 28.426 17.106C28.3531 16.9301 28.3156 16.7415 28.3156 16.551C28.3156 16.1663 28.4684 15.7974 28.7404 15.5254C29.0124 15.2534 29.3814 15.1006 29.766 15.1006C30.1507 15.1006 30.5196 15.2534 30.7916 15.5254C31.0636 15.7974 31.2164 16.1663 31.2164 16.551Z" fill="#0076AD"/>
</g>
<defs>
<clipPath id="clip0_672_29766">
<rect width="45.325" height="45.325" fill="white" transform="translate(0.666992 0.143555)"/>
</clipPath>
</defs>
</svg>
