<svg width="54" height="54" viewBox="0 0 54 54" fill="none" xmlns="http://www.w3.org/2000/svg">
<g clip-path="url(#clip0_1495_324)">
<path d="M27.4355 0.15155C12.7998 0.15155 0.935547 12.0158 0.935547 26.6516C0.935547 41.2873 12.7998 53.1516 27.4355 53.1516C42.0713 53.1516 53.9355 41.2873 53.9355 26.6516C53.9355 12.0158 42.0713 0.15155 27.4355 0.15155ZM20.9486 37.6352H15.5823V20.3661H20.9486V37.6352ZM18.2323 18.2461C16.5374 18.2461 15.4415 17.0453 15.4415 15.5602C15.4415 14.0447 16.5705 12.8798 18.3013 12.8798C20.0321 12.8798 21.0921 14.0447 21.1252 15.5602C21.1252 17.0453 20.0321 18.2461 18.2323 18.2461ZM40.5475 37.6352H35.1813V28.0649C35.1813 25.8372 34.4028 24.3245 32.4623 24.3245C30.9799 24.3245 30.0993 25.3486 29.7101 26.3341C29.5666 26.6847 29.5307 27.1816 29.5307 27.6757V37.6325H24.1617V25.8731C24.1617 23.7172 24.0927 21.9147 24.0209 20.3633H28.6833L28.9289 22.7621H29.0366C29.7433 21.6359 31.474 19.9741 34.3697 19.9741C37.9003 19.9741 40.5475 22.3398 40.5475 27.4245V37.6352Z" fill="#171515"/>
</g>
<defs>
<clipPath id="clip0_1495_324">
<rect width="53.0719" height="53.0719" fill="white" transform="translate(0.935547 0.15155)"/>
</clipPath>
</defs>
</svg>
