<svg width="42" height="42" viewBox="0 0 42 42" fill="none" xmlns="http://www.w3.org/2000/svg">
<path d="M20.9278 1.56641C10.171 1.56641 1.45117 10.2862 1.45117 21.043C1.45117 31.7997 10.171 40.5196 20.9278 40.5196C31.6845 40.5196 40.4043 31.7997 40.4043 21.043C40.4043 10.2862 31.6845 1.56641 20.9278 1.56641ZM16.16 29.1156H12.216V16.4234H16.16V29.1156ZM14.1637 14.8653C12.918 14.8653 12.1126 13.9827 12.1126 12.8912C12.1126 11.7774 12.9424 10.9212 14.2144 10.9212C15.4865 10.9212 16.2655 11.7774 16.2899 12.8912C16.2899 13.9827 15.4865 14.8653 14.1637 14.8653ZM30.5646 29.1156H26.6206V22.0817C26.6206 20.4445 26.0485 19.3327 24.6222 19.3327C23.5327 19.3327 22.8856 20.0854 22.5995 20.8097C22.494 21.0673 22.4676 21.4325 22.4676 21.7957V29.1136H18.5216V20.4709C18.5216 18.8864 18.4709 17.5615 18.4181 16.4214H21.8448L22.0253 18.1844H22.1045C22.6238 17.3566 23.8959 16.1353 26.0241 16.1353C28.619 16.1353 30.5646 17.874 30.5646 21.611V29.1156Z" fill="#171515"/>
</svg>
