<svg width="47" height="46" viewBox="0 0 47 46" fill="none" xmlns="http://www.w3.org/2000/svg">
<path d="M23.463 1.0498C11.4474 1.0498 1.70703 10.7901 1.70703 22.8058C1.70703 34.8215 11.4474 44.5618 23.463 44.5618C35.4787 44.5618 45.219 34.8215 45.219 22.8058C45.219 10.7901 35.4787 1.0498 23.463 1.0498ZM18.1373 31.8232H13.7318V17.6456H18.1373V31.8232ZM15.9074 15.9051C14.5159 15.9051 13.6162 14.9193 13.6162 13.7C13.6162 12.4558 14.5431 11.4995 15.964 11.4995C17.385 11.4995 18.2552 12.4558 18.2824 13.7C18.2824 14.9193 17.385 15.9051 15.9074 15.9051ZM34.2277 31.8232H29.8221V23.9661C29.8221 22.1373 29.1831 20.8954 27.5899 20.8954C26.3729 20.8954 25.65 21.7361 25.3304 22.5452C25.2126 22.833 25.1831 23.2409 25.1831 23.6466V31.8209H20.7753V22.1667C20.7753 20.3968 20.7186 18.9169 20.6597 17.6433H24.4874L24.6891 19.6127H24.7775C25.3576 18.688 26.7786 17.3237 29.1559 17.3237C32.0544 17.3237 34.2277 19.2659 34.2277 23.4404V31.8232Z" fill="#FEFFFF"/>
</svg>
