<svg width="27" height="18" viewBox="0 0 27 18" fill="none" xmlns="http://www.w3.org/2000/svg">
<path d="M6 3.6V0H27V3.6H6ZM6 10.8V7.19999H27V10.8H6ZM6 18V14.4H27V18H6ZM1.5 3.6C1.075 3.6 0.719005 3.4272 0.432005 3.0816C0.145005 2.736 0.00100517 2.3088 5.17241e-06 1.8C-0.000994827 1.2912 0.143005 0.863999 0.432005 0.518399C0.721005 0.1728 1.077 0 1.5 0C1.923 0 2.2795 0.1728 2.5695 0.518399C2.8595 0.863999 3.003 1.2912 3 1.8C2.997 2.3088 2.853 2.7366 2.568 3.0834C2.283 3.4302 1.927 3.6024 1.5 3.6ZM1.5 10.8C1.075 10.8 0.719005 10.6272 0.432005 10.2816C0.145005 9.93599 0.00100517 9.50879 5.17241e-06 8.99999C-0.000994827 8.49119 0.143005 8.06399 0.432005 7.71839C0.721005 7.37279 1.077 7.19999 1.5 7.19999C1.923 7.19999 2.2795 7.37279 2.5695 7.71839C2.8595 8.06399 3.003 8.49119 3 8.99999C2.997 9.50879 2.853 9.93659 2.568 10.2834C2.283 10.6302 1.927 10.8024 1.5 10.8ZM1.5 18C1.075 18 0.719005 17.8272 0.432005 17.4816C0.145005 17.136 0.00100517 16.7088 5.17241e-06 16.2C-0.000994827 15.6912 0.143005 15.264 0.432005 14.9184C0.721005 14.5728 1.077 14.4 1.5 14.4C1.923 14.4 2.2795 14.5728 2.5695 14.9184C2.8595 15.264 3.003 15.6912 3 16.2C2.997 16.7088 2.853 17.1366 2.568 17.4834C2.283 17.8302 1.927 18.0024 1.5 18Z" fill="#878787"/>
</svg>
