<svg width="41" height="42" viewBox="0 0 41 42" fill="none" xmlns="http://www.w3.org/2000/svg">
<g clip-path="url(#clip0_582_8063)">
<ellipse cx="20.2038" cy="20.5358" rx="19.7809" ry="19.7809" fill="#171515"/>
<path d="M18.9518 24.4794L15.953 27.7243C15.8546 27.8303 15.7858 27.9555 15.7523 28.0897C15.7188 28.2239 15.7215 28.3633 15.7602 28.4963C15.799 28.6294 15.8726 28.7524 15.9752 28.8553C16.0777 28.9582 16.2062 29.038 16.3501 29.0883L19.2816 30.1127C19.428 30.1639 19.5861 30.183 19.7426 30.1683C19.899 30.1536 20.0492 30.1057 20.1804 30.0284C20.3115 29.9512 20.4198 29.847 20.496 29.7246C20.5723 29.6023 20.6142 29.4654 20.6183 29.3256L20.7463 25.0755C20.7522 24.8876 20.6918 24.7029 20.5737 24.547C20.4556 24.3912 20.2857 24.2721 20.0876 24.2064C19.8896 24.1407 19.6735 24.1317 19.4694 24.1806C19.2653 24.2296 19.0858 24.334 18.9518 24.4794ZM18.4527 21.2537L14.0045 19.8338C13.8593 19.7875 13.7038 19.7724 13.5508 19.7897C13.3977 19.807 13.2515 19.8562 13.1239 19.9333C12.9963 20.0104 12.8911 20.1132 12.8167 20.2334C12.7424 20.3536 12.701 20.4877 12.696 20.6248L12.5962 23.4241C12.5745 24.0279 13.2342 24.4658 13.8786 24.2787L18.4245 22.9572C18.625 22.8987 18.7999 22.7861 18.9249 22.635C19.0499 22.4839 19.1188 22.3019 19.1219 22.1144C19.125 21.9268 19.0622 21.7431 18.9423 21.5888C18.8223 21.4345 18.6512 21.3174 18.4527 21.2537ZM23.5476 21.709L28.1022 20.592C28.2511 20.5556 28.3882 20.4883 28.5023 20.3958C28.6164 20.3032 28.7042 20.188 28.7586 20.0595C28.813 19.9309 28.8324 19.7928 28.8152 19.6563C28.7981 19.5199 28.7448 19.389 28.6598 19.2743L26.9304 16.9342C26.844 16.8168 26.7269 16.7198 26.5892 16.6513C26.4515 16.5829 26.2972 16.545 26.1395 16.5411C25.9818 16.5371 25.8253 16.5671 25.6834 16.6285C25.5416 16.6899 25.4185 16.7808 25.3247 16.8937L22.467 20.3026C22.3413 20.453 22.2714 20.6346 22.2672 20.822C22.263 21.0094 22.3247 21.1934 22.4436 21.3481C22.5626 21.5029 22.7328 21.6209 22.9307 21.6855C23.1286 21.7502 23.3442 21.7584 23.5476 21.709ZM20.2494 11.9799C20.258 11.8172 20.2231 11.6549 20.1476 11.5065C20.0722 11.358 19.9582 11.2275 19.8151 11.1257C19.6721 11.0239 19.5039 10.9537 19.3244 10.9207C19.145 10.8878 18.9593 10.8931 18.7825 10.9362L15.1784 11.8102C14.998 11.8537 14.8321 11.9354 14.6948 12.0482C14.5575 12.161 14.4529 12.3016 14.3899 12.458C14.3268 12.6145 14.3072 12.7821 14.3326 12.9468C14.3581 13.1114 14.4279 13.2682 14.5361 13.4037L18.6697 19.774C18.7029 19.8265 18.7414 19.8762 18.7847 19.9225C18.9229 20.0642 19.1006 20.1711 19.2998 20.2326C19.4991 20.294 19.7131 20.3079 19.9203 20.2727C20.1275 20.2375 20.3206 20.1546 20.4804 20.0322C20.6403 19.9098 20.7611 19.7522 20.8309 19.5753C20.8797 19.4403 20.8974 19.2979 20.883 19.1566L20.2472 11.9799H20.2494ZM28.1326 24.6202L23.5606 23.372C23.3586 23.3163 23.142 23.3183 22.9412 23.3776C22.7405 23.4369 22.5656 23.5506 22.4412 23.7027C22.3168 23.8548 22.249 24.0377 22.2474 24.2257C22.2458 24.4138 22.3105 24.5976 22.4323 24.7514L25.1446 28.1892C25.5287 28.6715 26.3294 28.6851 26.7286 28.2124L28.6273 25.9784C28.7226 25.8667 28.7861 25.7361 28.8124 25.5979C28.8388 25.4597 28.8272 25.3179 28.7786 25.1845C28.73 25.0511 28.6459 24.9301 28.5334 24.8319C28.4209 24.7336 28.2834 24.661 28.1326 24.6202Z" fill="white"/>
</g>
<defs>
<clipPath id="clip0_582_8063">
<rect width="40.5762" height="40.5762" fill="white" transform="translate(0.422852 0.754883)"/>
</clipPath>
</defs>
</svg>
