<svg width="46" height="46" viewBox="0 0 46 46" fill="none" xmlns="http://www.w3.org/2000/svg">
<g clip-path="url(#clip0_672_29762)">
<ellipse cx="22.2961" cy="22.2395" rx="22.0959" ry="22.0959" fill="#FEFFFF"/>
<path d="M20.8978 26.6439L17.5481 30.2686C17.4381 30.387 17.3613 30.5269 17.3238 30.6768C17.2864 30.8267 17.2894 30.9823 17.3327 31.131C17.376 31.2796 17.4583 31.417 17.5728 31.532C17.6874 31.6469 17.8309 31.7361 17.9917 31.7922L21.2662 32.9365C21.4298 32.9937 21.6064 33.015 21.7812 32.9986C21.9559 32.9822 22.1237 32.9286 22.2702 32.8424C22.4167 32.7561 22.5376 32.6397 22.6228 32.503C22.7079 32.3663 22.7548 32.2134 22.7593 32.0572L22.9023 27.3098C22.9089 27.0999 22.8415 26.8935 22.7096 26.7195C22.5776 26.5454 22.3878 26.4123 22.1666 26.3389C21.9454 26.2656 21.7039 26.2555 21.476 26.3102C21.2481 26.3648 21.0475 26.4815 20.8978 26.6439ZM20.3403 23.0407L15.3715 21.4546C15.2093 21.4029 15.0356 21.386 14.8647 21.4053C14.6937 21.4246 14.5304 21.4796 14.3879 21.5657C14.2454 21.6519 14.1278 21.7668 14.0447 21.901C13.9617 22.0352 13.9155 22.185 13.9099 22.3382L13.7984 25.4651C13.7742 26.1396 14.511 26.6288 15.2309 26.4197L20.3088 24.9436C20.5327 24.8783 20.7282 24.7525 20.8678 24.5837C21.0075 24.4149 21.0844 24.2116 21.0878 24.0021C21.0913 23.7926 21.0212 23.5874 20.8872 23.415C20.7532 23.2427 20.562 23.1118 20.3403 23.0407ZM26.0315 23.5493L31.1191 22.3015C31.2854 22.2608 31.4386 22.1857 31.566 22.0824C31.6935 21.979 31.7916 21.8502 31.8523 21.7067C31.9131 21.5631 31.9348 21.4088 31.9156 21.2564C31.8964 21.104 31.8369 20.9577 31.742 20.8297L29.8102 18.2156C29.7137 18.0845 29.5829 17.9761 29.4291 17.8997C29.2752 17.8232 29.1029 17.781 28.9267 17.7765C28.7505 17.7721 28.5758 17.8056 28.4173 17.8742C28.2588 17.9427 28.1214 18.0444 28.0166 18.1704L24.8244 21.9783C24.684 22.1463 24.606 22.3492 24.6013 22.5585C24.5966 22.7679 24.6655 22.9733 24.7983 23.1462C24.9312 23.3191 25.1214 23.4508 25.3424 23.5231C25.5634 23.5953 25.8043 23.6045 26.0315 23.5493ZM22.3473 12.6816C22.3569 12.4998 22.3179 12.3185 22.2336 12.1527C22.1493 11.9868 22.022 11.8411 21.8622 11.7274C21.7024 11.6137 21.5145 11.5352 21.3141 11.4984C21.1136 11.4616 20.9062 11.4676 20.7088 11.5157L16.6828 12.4919C16.4813 12.5406 16.296 12.6318 16.1426 12.7578C15.9893 12.8838 15.8724 13.0408 15.802 13.2156C15.7315 13.3904 15.7096 13.5777 15.738 13.7616C15.7665 13.9455 15.8445 14.1206 15.9653 14.272L20.5827 21.3878C20.6198 21.4465 20.6628 21.502 20.7112 21.5537C20.8656 21.712 21.064 21.8314 21.2866 21.9001C21.5092 21.9687 21.7482 21.9842 21.9796 21.9449C22.2111 21.9056 22.4269 21.813 22.6054 21.6763C22.7839 21.5395 22.9189 21.3635 22.9969 21.1658C23.0514 21.015 23.0712 20.856 23.055 20.6982L22.3448 12.6816H22.3473ZM31.153 26.8012L26.046 25.4069C25.8203 25.3447 25.5784 25.3469 25.3542 25.4131C25.1299 25.4794 24.9346 25.6064 24.7956 25.7763C24.6567 25.9462 24.581 26.1505 24.5792 26.3606C24.5774 26.5706 24.6496 26.776 24.7856 26.9477L27.8154 30.7879C28.2444 31.3267 29.1388 31.3418 29.5848 30.8138L31.7057 28.3183C31.8121 28.1935 31.8831 28.0477 31.9125 27.8933C31.9419 27.7389 31.9289 27.5805 31.8747 27.4315C31.8204 27.2825 31.7264 27.1474 31.6008 27.0377C31.4752 26.9279 31.3215 26.8468 31.153 26.8012Z" fill="#0076AD"/>
</g>
<defs>
<clipPath id="clip0_672_29762">
<rect width="45.325" height="45.325" fill="white" transform="translate(0.200195 0.143555)"/>
</clipPath>
</defs>
</svg>
