<svg width="54" height="54" viewBox="0 0 54 54" fill="none" xmlns="http://www.w3.org/2000/svg">
<g clip-path="url(#clip0_1495_336)">
<circle cx="26.9541" cy="26.6516" r="26.5" fill="#171515"/>
<path d="M23.8148 32.9084L18.9769 38.1435C18.8181 38.3145 18.7071 38.5165 18.653 38.733C18.5989 38.9495 18.6033 39.1743 18.6658 39.389C18.7284 39.6037 18.8472 39.8022 19.0126 39.9682C19.178 40.1342 19.3853 40.263 19.6175 40.344L24.3469 41.9967C24.5831 42.0793 24.8382 42.1101 25.0906 42.0864C25.343 42.0628 25.5852 41.9854 25.7968 41.8608C26.0084 41.7361 26.1831 41.568 26.3061 41.3706C26.4291 41.1732 26.4967 40.9524 26.5033 40.7268L26.7098 33.8702C26.7193 33.5671 26.622 33.2691 26.4314 33.0176C26.2409 32.7662 25.9667 32.5741 25.6473 32.4681C25.3278 32.3621 24.9791 32.3476 24.6499 32.4265C24.3206 32.5055 24.031 32.674 23.8148 32.9084ZM23.0097 27.7045L15.8333 25.4138C15.599 25.3391 15.3482 25.3147 15.1013 25.3426C14.8545 25.3705 14.6185 25.4499 14.4127 25.5743C14.2069 25.6987 14.0371 25.8646 13.9171 26.0585C13.7971 26.2524 13.7304 26.4687 13.7224 26.6899L13.5614 31.206C13.5264 32.1801 14.5906 32.8867 15.6303 32.5848L22.9641 30.4528C23.2875 30.3584 23.5698 30.1768 23.7715 29.933C23.9731 29.6893 24.0842 29.3956 24.0892 29.0931C24.0943 28.7905 23.9929 28.4941 23.7994 28.2452C23.6059 27.9963 23.3298 27.8072 23.0097 27.7045ZM31.2292 28.439L38.5771 26.637C38.8173 26.5782 39.0385 26.4697 39.2225 26.3204C39.4066 26.1711 39.5483 25.9852 39.636 25.7779C39.7238 25.5705 39.7551 25.3477 39.7274 25.1275C39.6997 24.9074 39.6138 24.6962 39.4767 24.5112L36.6867 20.7358C36.5473 20.5465 36.3584 20.39 36.1362 20.2795C35.914 20.1691 35.6651 20.1081 35.4107 20.1017C35.1562 20.0952 34.9038 20.1436 34.6749 20.2427C34.4461 20.3417 34.2475 20.4885 34.0962 20.6705L29.4859 26.1701C29.283 26.4128 29.1703 26.7058 29.1636 27.0081C29.1568 27.3105 29.2563 27.6072 29.4482 27.8569C29.64 28.1066 29.9147 28.2969 30.234 28.4012C30.5532 28.5056 30.9011 28.5188 31.2292 28.439ZM25.9082 12.7432C25.9221 12.4806 25.8658 12.2189 25.744 11.9793C25.6223 11.7398 25.4385 11.5293 25.2076 11.3651C24.9768 11.2008 24.7055 11.0875 24.416 11.0344C24.1264 10.9812 23.8269 10.9898 23.5418 11.0594L17.7272 12.4693C17.4361 12.5396 17.1685 12.6713 16.947 12.8533C16.7256 13.0352 16.5568 13.2621 16.455 13.5145C16.3533 13.7669 16.3216 14.0374 16.3627 14.303C16.4038 14.5686 16.5164 14.8215 16.691 15.0401L23.3597 25.3173C23.4132 25.402 23.4753 25.4823 23.5453 25.557C23.7682 25.7855 24.0548 25.958 24.3763 26.0571C24.6978 26.1563 25.043 26.1786 25.3772 26.1219C25.7115 26.0651 26.0231 25.9314 26.281 25.7339C26.5388 25.5364 26.7338 25.2822 26.8464 24.9967C26.9251 24.7789 26.9537 24.5492 26.9304 24.3213L25.9047 12.7432H25.9082ZM38.6261 33.1357L31.2502 31.1219C30.9242 31.0321 30.5748 31.0353 30.2509 31.131C29.9271 31.2266 29.645 31.41 29.4443 31.6554C29.2436 31.9008 29.1342 32.1959 29.1317 32.4993C29.1291 32.8027 29.2333 33.0992 29.4299 33.3473L33.8057 38.8936C34.4253 39.6717 35.717 39.6935 36.3611 38.9309L39.4242 35.3268C39.578 35.1466 39.6804 34.936 39.7229 34.713C39.7654 34.49 39.7467 34.2612 39.6683 34.046C39.5899 33.8309 39.4542 33.6357 39.2728 33.4772C39.0913 33.3187 38.8694 33.2015 38.6261 33.1357Z" fill="#FCE385"/>
</g>
<defs>
<clipPath id="clip0_1495_336">
<rect width="53.0719" height="53.0719" fill="white" transform="translate(0.454102 0.15155)"/>
</clipPath>
</defs>
</svg>
