<svg width="58" height="58" viewBox="0 0 58 58" fill="none" xmlns="http://www.w3.org/2000/svg">
<path d="M31.9747 28.0743L25.7664 25.1775C25.2246 24.9259 24.7796 25.2079 24.7796 25.8077V31.2642C24.7796 31.864 25.2246 32.1459 25.7664 31.8944L31.9719 28.9976C32.5165 28.7432 32.5165 28.3286 31.9747 28.0743ZM27.5438 2C12.8882 2 1.00781 13.8804 1.00781 28.5359C1.00781 43.1915 12.8882 55.0719 27.5438 55.0719C42.1993 55.0719 54.0797 43.1915 54.0797 28.5359C54.0797 13.8804 42.1993 2 27.5438 2ZM27.5438 39.3162C13.9607 39.3162 13.723 38.0916 13.723 28.5359C13.723 18.9802 13.9607 17.7557 27.5438 17.7557C41.1268 17.7557 41.3646 18.9802 41.3646 28.5359C41.3646 38.0916 41.1268 39.3162 27.5438 39.3162Z" fill="#171515"/>
</svg>
