<svg width="50" height="50" viewBox="0 0 50 50" fill="none" xmlns="http://www.w3.org/2000/svg">
<path d="M28.2934 23.4323L22.9913 20.9583C22.5286 20.7435 22.1485 20.9843 22.1485 21.4966V26.1566C22.1485 26.6688 22.5286 26.9096 22.9913 26.6948L28.291 24.2208C28.756 24.0036 28.756 23.6495 28.2934 23.4323ZM24.5092 1.16406C11.9929 1.16406 1.84668 11.3103 1.84668 23.8266C1.84668 36.3429 11.9929 46.4891 24.5092 46.4891C37.0255 46.4891 47.1717 36.3429 47.1717 23.8266C47.1717 11.3103 37.0255 1.16406 24.5092 1.16406ZM24.5092 33.0332C12.9088 33.0332 12.7058 31.9874 12.7058 23.8266C12.7058 15.6657 12.9088 14.6199 24.5092 14.6199C36.1096 14.6199 36.3126 15.6657 36.3126 23.8266C36.3126 31.9874 36.1096 33.0332 24.5092 33.0332Z" fill="#FEFFFF"/>
</svg>
