<svg width="44" height="44" viewBox="0 0 44 44" fill="none" xmlns="http://www.w3.org/2000/svg">
<g clip-path="url(#clip0_582_8072)">
<path d="M24.6231 20.8121L19.8765 18.5973C19.4623 18.405 19.122 18.6206 19.122 19.0792V23.2509C19.122 23.7095 19.4623 23.9251 19.8765 23.7328L24.621 21.518C25.0373 21.3236 25.0373 21.0066 24.6231 20.8121ZM21.2354 0.876953C10.0304 0.876953 0.947266 9.96011 0.947266 21.1651C0.947266 32.37 10.0304 41.4532 21.2354 41.4532C32.4403 41.4532 41.5235 32.37 41.5235 21.1651C41.5235 9.96011 32.4403 0.876953 21.2354 0.876953ZM21.2354 29.4071C10.8504 29.4071 10.6687 28.4709 10.6687 21.1651C10.6687 13.8592 10.8504 12.923 21.2354 12.923C31.6204 12.923 31.8021 13.8592 31.8021 21.1651C31.8021 28.4709 31.6204 29.4071 21.2354 29.4071Z" fill="#171515"/>
</g>
<defs>
<clipPath id="clip0_582_8072">
<rect width="43.8662" height="43.8662" fill="white" transform="translate(0.0703125)"/>
</clipPath>
</defs>
</svg>
